<mxfile host="app.diagrams.net" modified="2024-07-08T18:04:52.730Z" agent="Mozilla/5.0 (Windows NT 10.0; Win64; x64) AppleWebKit/537.36 (KHTML, like Gecko) Chrome/126.0.0.0 Safari/537.36 Edg/126.0.0.0" etag="sb_UkPeM8-Oy3gpAbzEa" version="24.6.4" type="device">
  <diagram name="Page-2" id="e9qXXjAQqsOdMN02B87E">
    <mxGraphModel dx="1533" dy="1022" grid="0" gridSize="10" guides="1" tooltips="1" connect="1" arrows="1" fold="1" page="0" pageScale="1" pageWidth="850" pageHeight="1100" math="0" shadow="0">
      <root>
        <mxCell id="lIqId058c7UxrgpGXrAG-0" />
        <mxCell id="lIqId058c7UxrgpGXrAG-1" parent="lIqId058c7UxrgpGXrAG-0" />
        <mxCell id="lIqId058c7UxrgpGXrAG-2" value="" style="rounded=0;whiteSpace=wrap;html=1;" parent="lIqId058c7UxrgpGXrAG-1" vertex="1">
          <mxGeometry x="-1" y="-87" width="1225" height="873" as="geometry" />
        </mxCell>
        <mxCell id="lIqId058c7UxrgpGXrAG-3" value="" style="shape=cylinder3;whiteSpace=wrap;html=1;boundedLbl=1;backgroundOutline=1;size=15;" parent="lIqId058c7UxrgpGXrAG-1" vertex="1">
          <mxGeometry x="543" y="540" width="351" height="232" as="geometry" />
        </mxCell>
        <mxCell id="lIqId058c7UxrgpGXrAG-4" value="Admin&lt;span style=&quot;background-color: initial;&quot;&gt;&amp;nbsp;System&lt;/span&gt;" style="shape=folder;fontStyle=1;tabWidth=153;tabHeight=33;tabPosition=left;html=1;boundedLbl=1;labelInHeader=1;container=0;collapsible=0;whiteSpace=wrap;flipH=1;" parent="lIqId058c7UxrgpGXrAG-1" vertex="1">
          <mxGeometry x="700" y="230" width="513" height="254" as="geometry" />
        </mxCell>
        <mxCell id="lIqId058c7UxrgpGXrAG-5" value="Student Course System" style="shape=folder;fontStyle=1;tabWidth=148;tabHeight=31;tabPosition=left;html=1;boundedLbl=1;labelInHeader=1;container=1;collapsible=0;whiteSpace=wrap;" parent="lIqId058c7UxrgpGXrAG-1" vertex="1">
          <mxGeometry x="12" y="230" width="513" height="544" as="geometry" />
        </mxCell>
        <mxCell id="lIqId058c7UxrgpGXrAG-6" value="Text" style="html=1;strokeColor=none;resizeWidth=1;resizeHeight=1;fillColor=none;part=1;connectable=0;allowArrows=0;deletable=0;whiteSpace=wrap;" parent="lIqId058c7UxrgpGXrAG-5" vertex="1">
          <mxGeometry width="513" height="380.8" relative="1" as="geometry">
            <mxPoint y="30" as="offset" />
          </mxGeometry>
        </mxCell>
        <mxCell id="lIqId058c7UxrgpGXrAG-7" style="edgeStyle=orthogonalEdgeStyle;rounded=0;orthogonalLoop=1;jettySize=auto;html=1;entryX=0;entryY=0.5;entryDx=0;entryDy=0;endArrow=none;endFill=0;" parent="lIqId058c7UxrgpGXrAG-1" source="lIqId058c7UxrgpGXrAG-9" target="lIqId058c7UxrgpGXrAG-12" edge="1">
          <mxGeometry relative="1" as="geometry" />
        </mxCell>
        <mxCell id="lIqId058c7UxrgpGXrAG-8" style="rounded=0;orthogonalLoop=1;jettySize=auto;html=1;entryX=0;entryY=1;entryDx=0;entryDy=0;endArrow=none;endFill=0;exitX=1;exitY=0.3333333333333333;exitDx=0;exitDy=0;exitPerimeter=0;" parent="lIqId058c7UxrgpGXrAG-1" source="lIqId058c7UxrgpGXrAG-9" target="lIqId058c7UxrgpGXrAG-28" edge="1">
          <mxGeometry relative="1" as="geometry">
            <mxPoint x="42" y="137" as="sourcePoint" />
          </mxGeometry>
        </mxCell>
        <mxCell id="lIqId058c7UxrgpGXrAG-9" value="Student" style="shape=umlActor;verticalLabelPosition=bottom;verticalAlign=top;html=1;" parent="lIqId058c7UxrgpGXrAG-1" vertex="1">
          <mxGeometry x="-88" y="170" width="30" height="60" as="geometry" />
        </mxCell>
        <mxCell id="lIqId058c7UxrgpGXrAG-10" style="edgeStyle=orthogonalEdgeStyle;rounded=0;orthogonalLoop=1;jettySize=auto;html=1;entryX=1;entryY=0.5;entryDx=0;entryDy=0;endArrow=none;endFill=0;" parent="lIqId058c7UxrgpGXrAG-1" source="lIqId058c7UxrgpGXrAG-11" target="lIqId058c7UxrgpGXrAG-12" edge="1">
          <mxGeometry relative="1" as="geometry" />
        </mxCell>
        <mxCell id="lIqId058c7UxrgpGXrAG-11" value="Admin" style="shape=umlActor;verticalLabelPosition=bottom;verticalAlign=top;html=1;" parent="lIqId058c7UxrgpGXrAG-1" vertex="1">
          <mxGeometry x="1272" y="170" width="30" height="60" as="geometry" />
        </mxCell>
        <mxCell id="lIqId058c7UxrgpGXrAG-12" value="login" style="ellipse;whiteSpace=wrap;html=1;" parent="lIqId058c7UxrgpGXrAG-1" vertex="1">
          <mxGeometry x="561.5" y="166" width="102" height="68" as="geometry" />
        </mxCell>
        <mxCell id="lIqId058c7UxrgpGXrAG-13" value="" style="ellipse;whiteSpace=wrap;html=1;" parent="lIqId058c7UxrgpGXrAG-1" vertex="1">
          <mxGeometry x="264" y="282" width="102" height="68" as="geometry" />
        </mxCell>
        <mxCell id="lIqId058c7UxrgpGXrAG-14" value="logout" style="ellipse;whiteSpace=wrap;html=1;" parent="lIqId058c7UxrgpGXrAG-1" vertex="1">
          <mxGeometry x="563" y="258" width="102" height="68" as="geometry" />
        </mxCell>
        <mxCell id="lIqId058c7UxrgpGXrAG-15" value="&amp;lt;&amp;lt;extend&amp;gt;&amp;gt;" style="html=1;verticalAlign=bottom;labelBackgroundColor=none;endArrow=open;endFill=0;rounded=0;entryX=1;entryY=0;entryDx=0;entryDy=0;exitX=0;exitY=0.5;exitDx=0;exitDy=0;" parent="lIqId058c7UxrgpGXrAG-1" source="lIqId058c7UxrgpGXrAG-14" target="lIqId058c7UxrgpGXrAG-13" edge="1">
          <mxGeometry x="0.3228" width="160" relative="1" as="geometry">
            <mxPoint x="540" y="311" as="sourcePoint" />
            <mxPoint x="680" y="332" as="targetPoint" />
            <mxPoint as="offset" />
          </mxGeometry>
        </mxCell>
        <mxCell id="lIqId058c7UxrgpGXrAG-16" value="&amp;lt;&amp;lt;extend&amp;gt;&amp;gt;" style="html=1;verticalAlign=bottom;labelBackgroundColor=none;endArrow=open;endFill=0;rounded=0;entryX=0;entryY=0;entryDx=0;entryDy=0;exitX=1;exitY=0.5;exitDx=0;exitDy=0;" parent="lIqId058c7UxrgpGXrAG-1" source="lIqId058c7UxrgpGXrAG-14" target="lIqId058c7UxrgpGXrAG-62" edge="1">
          <mxGeometry width="160" relative="1" as="geometry">
            <mxPoint x="520" y="332" as="sourcePoint" />
            <mxPoint x="680" y="332" as="targetPoint" />
          </mxGeometry>
        </mxCell>
        <mxCell id="lIqId058c7UxrgpGXrAG-17" value="&amp;lt;&amp;lt;extend&amp;gt;&amp;gt;" style="html=1;verticalAlign=bottom;labelBackgroundColor=none;endArrow=open;endFill=0;rounded=0;entryX=1;entryY=0.5;entryDx=0;entryDy=0;exitX=0;exitY=0;exitDx=0;exitDy=0;" parent="lIqId058c7UxrgpGXrAG-1" source="lIqId058c7UxrgpGXrAG-24" target="lIqId058c7UxrgpGXrAG-13" edge="1">
          <mxGeometry width="160" relative="1" as="geometry">
            <mxPoint x="456" y="358" as="sourcePoint" />
            <mxPoint x="616" y="358" as="targetPoint" />
          </mxGeometry>
        </mxCell>
        <mxCell id="lIqId058c7UxrgpGXrAG-18" value="&amp;lt;&amp;lt;extend&amp;gt;&amp;gt;" style="html=1;verticalAlign=bottom;labelBackgroundColor=none;endArrow=open;endFill=0;rounded=0;entryX=1;entryY=1;entryDx=0;entryDy=0;exitX=0.5;exitY=0;exitDx=0;exitDy=0;" parent="lIqId058c7UxrgpGXrAG-1" source="lIqId058c7UxrgpGXrAG-23" target="lIqId058c7UxrgpGXrAG-13" edge="1">
          <mxGeometry x="-0.4305" width="160" relative="1" as="geometry">
            <mxPoint x="456" y="358" as="sourcePoint" />
            <mxPoint x="616" y="358" as="targetPoint" />
            <mxPoint as="offset" />
          </mxGeometry>
        </mxCell>
        <mxCell id="lIqId058c7UxrgpGXrAG-19" value="&amp;lt;&amp;lt;extend&amp;gt;&amp;gt;" style="html=1;verticalAlign=bottom;labelBackgroundColor=none;endArrow=open;endFill=0;rounded=0;entryX=0;entryY=1;entryDx=0;entryDy=0;exitX=0.5;exitY=0;exitDx=0;exitDy=0;" parent="lIqId058c7UxrgpGXrAG-1" source="lIqId058c7UxrgpGXrAG-22" target="lIqId058c7UxrgpGXrAG-13" edge="1">
          <mxGeometry x="-0.2808" y="1" width="160" relative="1" as="geometry">
            <mxPoint x="456" y="358" as="sourcePoint" />
            <mxPoint x="616" y="358" as="targetPoint" />
            <mxPoint y="-1" as="offset" />
          </mxGeometry>
        </mxCell>
        <mxCell id="lIqId058c7UxrgpGXrAG-20" value="&amp;lt;&amp;lt;extend&amp;gt;&amp;gt;" style="html=1;verticalAlign=bottom;labelBackgroundColor=none;endArrow=open;endFill=0;rounded=0;entryX=0;entryY=0.5;entryDx=0;entryDy=0;exitX=0.5;exitY=0;exitDx=0;exitDy=0;" parent="lIqId058c7UxrgpGXrAG-1" source="lIqId058c7UxrgpGXrAG-21" target="lIqId058c7UxrgpGXrAG-13" edge="1">
          <mxGeometry x="-0.2509" y="2" width="160" relative="1" as="geometry">
            <mxPoint x="456" y="358" as="sourcePoint" />
            <mxPoint x="616" y="358" as="targetPoint" />
            <mxPoint as="offset" />
          </mxGeometry>
        </mxCell>
        <mxCell id="lIqId058c7UxrgpGXrAG-21" value="enroll_&lt;span style=&quot;background-color: initial;&quot;&gt;subject&lt;/span&gt;" style="ellipse;html=1;whiteSpace=wrap;" parent="lIqId058c7UxrgpGXrAG-1" vertex="1">
          <mxGeometry x="111" y="403" width="102" height="68" as="geometry" />
        </mxCell>
        <mxCell id="lIqId058c7UxrgpGXrAG-22" value="remove_&lt;div&gt;subject_&lt;span style=&quot;background-color: initial;&quot;&gt;by_id&lt;/span&gt;&lt;/div&gt;" style="ellipse;whiteSpace=wrap;html=1;" parent="lIqId058c7UxrgpGXrAG-1" vertex="1">
          <mxGeometry x="213" y="403" width="102" height="68" as="geometry" />
        </mxCell>
        <mxCell id="lIqId058c7UxrgpGXrAG-23" value="show_enrolled_&lt;div&gt;subjects&lt;/div&gt;" style="ellipse;whiteSpace=wrap;html=1;" parent="lIqId058c7UxrgpGXrAG-1" vertex="1">
          <mxGeometry x="315" y="403" width="102" height="68" as="geometry" />
        </mxCell>
        <mxCell id="lIqId058c7UxrgpGXrAG-24" value="change_student_&lt;div&gt;&lt;span style=&quot;background-color: initial;&quot;&gt;password&lt;/span&gt;&lt;/div&gt;" style="ellipse;whiteSpace=wrap;html=1;" parent="lIqId058c7UxrgpGXrAG-1" vertex="1">
          <mxGeometry x="417" y="403" width="102" height="68" as="geometry" />
        </mxCell>
        <mxCell id="lIqId058c7UxrgpGXrAG-25" value="validate_&lt;div&gt;password&lt;/div&gt;" style="ellipse;whiteSpace=wrap;html=1;" parent="lIqId058c7UxrgpGXrAG-1" vertex="1">
          <mxGeometry x="508" y="51" width="102" height="68" as="geometry" />
        </mxCell>
        <mxCell id="lIqId058c7UxrgpGXrAG-26" value="&amp;lt;&amp;lt;include&amp;gt;&amp;gt;" style="html=1;verticalAlign=bottom;labelBackgroundColor=none;endArrow=open;endFill=0;rounded=0;entryX=0.5;entryY=1;entryDx=0;entryDy=0;exitX=0.5;exitY=0;exitDx=0;exitDy=0;dashed=1;" parent="lIqId058c7UxrgpGXrAG-1" source="lIqId058c7UxrgpGXrAG-24" target="lIqId058c7UxrgpGXrAG-25" edge="1">
          <mxGeometry x="-0.7648" y="-1" width="160" relative="1" as="geometry">
            <mxPoint x="525" y="245" as="sourcePoint" />
            <mxPoint x="685" y="245" as="targetPoint" />
            <mxPoint as="offset" />
          </mxGeometry>
        </mxCell>
        <mxCell id="lIqId058c7UxrgpGXrAG-28" value="register_&lt;div&gt;student&lt;/div&gt;" style="ellipse;whiteSpace=wrap;html=1;" parent="lIqId058c7UxrgpGXrAG-1" vertex="1">
          <mxGeometry x="335" y="98" width="102" height="68" as="geometry" />
        </mxCell>
        <mxCell id="lIqId058c7UxrgpGXrAG-29" value="&amp;lt;&amp;lt;include&amp;gt;&amp;gt;" style="html=1;verticalAlign=bottom;labelBackgroundColor=none;endArrow=open;endFill=0;dashed=1;rounded=0;entryX=0;entryY=1;entryDx=0;entryDy=0;exitX=1;exitY=0.5;exitDx=0;exitDy=0;" parent="lIqId058c7UxrgpGXrAG-1" source="lIqId058c7UxrgpGXrAG-28" target="lIqId058c7UxrgpGXrAG-25" edge="1">
          <mxGeometry width="160" relative="1" as="geometry">
            <mxPoint x="479" y="254" as="sourcePoint" />
            <mxPoint x="639" y="254" as="targetPoint" />
          </mxGeometry>
        </mxCell>
        <mxCell id="lIqId058c7UxrgpGXrAG-30" value="generate_&lt;div&gt;student_id&lt;/div&gt;" style="ellipse;whiteSpace=wrap;html=1;" parent="lIqId058c7UxrgpGXrAG-1" vertex="1">
          <mxGeometry x="335" y="-19.999999999999996" width="102" height="68" as="geometry" />
        </mxCell>
        <mxCell id="lIqId058c7UxrgpGXrAG-32" value="validate_email" style="ellipse;whiteSpace=wrap;html=1;" parent="lIqId058c7UxrgpGXrAG-1" vertex="1">
          <mxGeometry x="162" y="48" width="102" height="68" as="geometry" />
        </mxCell>
        <mxCell id="lIqId058c7UxrgpGXrAG-34" value="generate_&lt;div&gt;subject_mark&lt;/div&gt;" style="ellipse;html=1;whiteSpace=wrap;" parent="lIqId058c7UxrgpGXrAG-1" vertex="1">
          <mxGeometry x="19" y="557" width="102" height="68" as="geometry" />
        </mxCell>
        <mxCell id="lIqId058c7UxrgpGXrAG-35" value="generate_&lt;div&gt;subject_&lt;span style=&quot;background-color: initial;&quot;&gt;id&lt;/span&gt;&lt;/div&gt;" style="ellipse;html=1;whiteSpace=wrap;" parent="lIqId058c7UxrgpGXrAG-1" vertex="1">
          <mxGeometry x="19" y="282" width="102" height="68" as="geometry" />
        </mxCell>
        <mxCell id="lIqId058c7UxrgpGXrAG-36" value="calculate_grade" style="ellipse;html=1;whiteSpace=wrap;" parent="lIqId058c7UxrgpGXrAG-1" vertex="1">
          <mxGeometry x="111" y="702" width="102" height="68" as="geometry" />
        </mxCell>
        <mxCell id="lIqId058c7UxrgpGXrAG-37" value="&amp;lt;&amp;lt;include&amp;gt;&amp;gt;" style="html=1;verticalAlign=bottom;labelBackgroundColor=none;endArrow=open;endFill=0;dashed=1;rounded=0;exitX=0;exitY=0;exitDx=0;exitDy=0;entryX=0.5;entryY=1;entryDx=0;entryDy=0;" parent="lIqId058c7UxrgpGXrAG-1" source="lIqId058c7UxrgpGXrAG-21" target="lIqId058c7UxrgpGXrAG-35" edge="1">
          <mxGeometry width="160" relative="1" as="geometry">
            <mxPoint x="472" y="586" as="sourcePoint" />
            <mxPoint x="586" y="638" as="targetPoint" />
          </mxGeometry>
        </mxCell>
        <mxCell id="lIqId058c7UxrgpGXrAG-38" value="&amp;lt;&amp;lt;include&amp;gt;&amp;gt;" style="html=1;verticalAlign=bottom;labelBackgroundColor=none;endArrow=open;endFill=0;dashed=1;rounded=0;exitX=1;exitY=1;exitDx=0;exitDy=0;entryX=0.5;entryY=0;entryDx=0;entryDy=0;" parent="lIqId058c7UxrgpGXrAG-1" source="lIqId058c7UxrgpGXrAG-12" target="lIqId058c7UxrgpGXrAG-62" edge="1">
          <mxGeometry x="0.0437" y="9" width="160" relative="1" as="geometry">
            <mxPoint x="482" y="596" as="sourcePoint" />
            <mxPoint x="596" y="648" as="targetPoint" />
            <mxPoint as="offset" />
          </mxGeometry>
        </mxCell>
        <mxCell id="lIqId058c7UxrgpGXrAG-39" value="&amp;lt;&amp;lt;include&amp;gt;&amp;gt;" style="html=1;verticalAlign=bottom;labelBackgroundColor=none;endArrow=open;endFill=0;dashed=1;rounded=0;exitX=0;exitY=1;exitDx=0;exitDy=0;entryX=0.5;entryY=0;entryDx=0;entryDy=0;" parent="lIqId058c7UxrgpGXrAG-1" source="lIqId058c7UxrgpGXrAG-12" target="lIqId058c7UxrgpGXrAG-13" edge="1">
          <mxGeometry x="0.4154" y="-15" width="160" relative="1" as="geometry">
            <mxPoint x="492" y="606" as="sourcePoint" />
            <mxPoint x="606" y="658" as="targetPoint" />
            <mxPoint x="1" y="-1" as="offset" />
          </mxGeometry>
        </mxCell>
        <mxCell id="lIqId058c7UxrgpGXrAG-40" value="&amp;lt;&amp;lt;include&amp;gt;&amp;gt;" style="html=1;verticalAlign=bottom;labelBackgroundColor=none;endArrow=open;endFill=0;dashed=1;rounded=0;exitX=0;exitY=1;exitDx=0;exitDy=0;entryX=0.5;entryY=0;entryDx=0;entryDy=0;" parent="lIqId058c7UxrgpGXrAG-1" source="lIqId058c7UxrgpGXrAG-21" target="lIqId058c7UxrgpGXrAG-34" edge="1">
          <mxGeometry width="160" relative="1" as="geometry">
            <mxPoint x="136" y="471" as="sourcePoint" />
            <mxPoint x="121" y="529" as="targetPoint" />
          </mxGeometry>
        </mxCell>
        <mxCell id="lIqId058c7UxrgpGXrAG-41" value="&amp;lt;&amp;lt;include&amp;gt;&amp;gt;" style="html=1;verticalAlign=bottom;labelBackgroundColor=none;endArrow=open;endFill=0;dashed=1;rounded=0;entryX=0;entryY=0;entryDx=0;entryDy=0;exitX=0.5;exitY=1;exitDx=0;exitDy=0;" parent="lIqId058c7UxrgpGXrAG-1" source="lIqId058c7UxrgpGXrAG-34" target="lIqId058c7UxrgpGXrAG-36" edge="1">
          <mxGeometry width="160" relative="1" as="geometry">
            <mxPoint x="506" y="293" as="sourcePoint" />
            <mxPoint x="666" y="293" as="targetPoint" />
          </mxGeometry>
        </mxCell>
        <mxCell id="lIqId058c7UxrgpGXrAG-42" value="" style="html=1;rounded=0;endArrow=none;endFill=0;" parent="lIqId058c7UxrgpGXrAG-1" edge="1">
          <mxGeometry width="100" relative="1" as="geometry">
            <mxPoint x="269" y="300.5" as="sourcePoint" />
            <mxPoint x="360" y="300" as="targetPoint" />
          </mxGeometry>
        </mxCell>
        <mxCell id="lIqId058c7UxrgpGXrAG-43" value="Session" style="text;html=1;align=center;verticalAlign=middle;whiteSpace=wrap;rounded=0;" parent="lIqId058c7UxrgpGXrAG-1" vertex="1">
          <mxGeometry x="285" y="283.5" width="60" height="17" as="geometry" />
        </mxCell>
        <mxCell id="lIqId058c7UxrgpGXrAG-44" value="&lt;font style=&quot;font-size: 10px;&quot;&gt;extension point&lt;/font&gt;&lt;div style=&quot;&quot;&gt;&lt;i style=&quot;&quot;&gt;&lt;font style=&quot;font-size: 11px;&quot;&gt;Successful login&lt;/font&gt;&lt;/i&gt;&lt;/div&gt;" style="text;html=1;align=center;verticalAlign=middle;whiteSpace=wrap;rounded=0;" parent="lIqId058c7UxrgpGXrAG-1" vertex="1">
          <mxGeometry x="265" y="301" width="100" height="30" as="geometry" />
        </mxCell>
        <mxCell id="lIqId058c7UxrgpGXrAG-45" value="recalculate_&lt;div&gt;overall_mark&lt;/div&gt;" style="ellipse;html=1;whiteSpace=wrap;" parent="lIqId058c7UxrgpGXrAG-1" vertex="1">
          <mxGeometry x="213" y="557" width="102" height="68" as="geometry" />
        </mxCell>
        <mxCell id="lIqId058c7UxrgpGXrAG-46" value="&amp;lt;&amp;lt;include&amp;gt;&amp;gt;" style="html=1;verticalAlign=bottom;labelBackgroundColor=none;endArrow=open;endFill=0;dashed=1;rounded=0;exitX=0.5;exitY=1;exitDx=0;exitDy=0;entryX=0.5;entryY=0;entryDx=0;entryDy=0;" parent="lIqId058c7UxrgpGXrAG-1" source="lIqId058c7UxrgpGXrAG-22" target="lIqId058c7UxrgpGXrAG-45" edge="1">
          <mxGeometry x="-0.0465" width="160" relative="1" as="geometry">
            <mxPoint x="136" y="471" as="sourcePoint" />
            <mxPoint x="84" y="515" as="targetPoint" />
            <mxPoint as="offset" />
          </mxGeometry>
        </mxCell>
        <mxCell id="lIqId058c7UxrgpGXrAG-47" value="&amp;lt;&amp;lt;include&amp;gt;&amp;gt;" style="html=1;verticalAlign=bottom;labelBackgroundColor=none;endArrow=open;endFill=0;dashed=1;rounded=0;entryX=1;entryY=0;entryDx=0;entryDy=0;exitX=0.5;exitY=1;exitDx=0;exitDy=0;" parent="lIqId058c7UxrgpGXrAG-1" source="lIqId058c7UxrgpGXrAG-45" target="lIqId058c7UxrgpGXrAG-36" edge="1">
          <mxGeometry width="160" relative="1" as="geometry">
            <mxPoint x="331" y="736" as="sourcePoint" />
            <mxPoint x="571" y="420" as="targetPoint" />
          </mxGeometry>
        </mxCell>
        <mxCell id="lIqId058c7UxrgpGXrAG-48" value="&amp;lt;&amp;lt;include&amp;gt;&amp;gt;" style="html=1;verticalAlign=bottom;labelBackgroundColor=none;endArrow=open;endFill=0;dashed=1;rounded=0;entryX=0;entryY=0.5;entryDx=0;entryDy=0;exitX=1;exitY=0.5;exitDx=0;exitDy=0;" parent="lIqId058c7UxrgpGXrAG-1" source="lIqId058c7UxrgpGXrAG-34" target="lIqId058c7UxrgpGXrAG-45" edge="1">
          <mxGeometry width="160" relative="1" as="geometry">
            <mxPoint x="274" y="635" as="sourcePoint" />
            <mxPoint x="208" y="722" as="targetPoint" />
          </mxGeometry>
        </mxCell>
        <mxCell id="lIqId058c7UxrgpGXrAG-49" value="verify_&lt;div&gt;password&lt;/div&gt;" style="ellipse;whiteSpace=wrap;html=1;" parent="lIqId058c7UxrgpGXrAG-1" vertex="1">
          <mxGeometry x="754" y="96" width="102" height="68" as="geometry" />
        </mxCell>
        <mxCell id="lIqId058c7UxrgpGXrAG-50" value="&amp;lt;&amp;lt;include&amp;gt;&amp;gt;" style="html=1;verticalAlign=bottom;labelBackgroundColor=none;endArrow=open;endFill=0;dashed=1;rounded=0;entryX=0;entryY=0.5;entryDx=0;entryDy=0;exitX=1;exitY=0;exitDx=0;exitDy=0;" parent="lIqId058c7UxrgpGXrAG-1" source="lIqId058c7UxrgpGXrAG-12" target="lIqId058c7UxrgpGXrAG-49" edge="1">
          <mxGeometry x="-0.1884" y="13" width="160" relative="1" as="geometry">
            <mxPoint x="614" y="176" as="sourcePoint" />
            <mxPoint x="453" y="19" as="targetPoint" />
            <mxPoint x="-1" as="offset" />
          </mxGeometry>
        </mxCell>
        <mxCell id="lIqId058c7UxrgpGXrAG-51" value="&amp;lt;&amp;lt;include&amp;gt;&amp;gt;" style="html=1;verticalAlign=bottom;labelBackgroundColor=none;endArrow=open;endFill=0;dashed=1;rounded=0;entryX=0.5;entryY=1;entryDx=0;entryDy=0;exitX=1;exitY=0.5;exitDx=0;exitDy=0;" parent="lIqId058c7UxrgpGXrAG-1" source="lIqId058c7UxrgpGXrAG-24" target="lIqId058c7UxrgpGXrAG-49" edge="1">
          <mxGeometry x="-0.5193" y="-10" width="160" relative="1" as="geometry">
            <mxPoint x="578" y="186" as="sourcePoint" />
            <mxPoint x="529" y="142" as="targetPoint" />
            <mxPoint as="offset" />
          </mxGeometry>
        </mxCell>
        <mxCell id="lIqId058c7UxrgpGXrAG-52" value="University System" style="text;html=1;align=center;verticalAlign=middle;whiteSpace=wrap;rounded=0;fontStyle=1;fontSize=20;" parent="lIqId058c7UxrgpGXrAG-1" vertex="1">
          <mxGeometry x="497" y="-86.7" width="227" height="51.4" as="geometry" />
        </mxCell>
        <mxCell id="lIqId058c7UxrgpGXrAG-53" value="&amp;lt;&amp;lt;include&amp;gt;&amp;gt;" style="html=1;verticalAlign=bottom;labelBackgroundColor=none;endArrow=open;endFill=0;dashed=1;rounded=0;fontFamily=Helvetica;fontSize=12;fontColor=default;exitX=0;exitY=0.5;exitDx=0;exitDy=0;entryX=1;entryY=1;entryDx=0;entryDy=0;" parent="lIqId058c7UxrgpGXrAG-1" source="lIqId058c7UxrgpGXrAG-28" target="lIqId058c7UxrgpGXrAG-32" edge="1">
          <mxGeometry width="160" relative="1" as="geometry">
            <mxPoint x="520" y="383" as="sourcePoint" />
            <mxPoint x="270" y="104" as="targetPoint" />
          </mxGeometry>
        </mxCell>
        <mxCell id="lIqId058c7UxrgpGXrAG-54" value="&lt;div&gt;update_student&lt;br&gt;&lt;/div&gt;" style="ellipse;whiteSpace=wrap;html=1;" parent="lIqId058c7UxrgpGXrAG-1" vertex="1">
          <mxGeometry x="562" y="688" width="102" height="68" as="geometry" />
        </mxCell>
        <mxCell id="lIqId058c7UxrgpGXrAG-55" value="&lt;div&gt;create_student&lt;br&gt;&lt;/div&gt;" style="ellipse;whiteSpace=wrap;html=1;" parent="lIqId058c7UxrgpGXrAG-1" vertex="1">
          <mxGeometry x="562" y="579" width="102" height="68" as="geometry" />
        </mxCell>
        <mxCell id="lIqId058c7UxrgpGXrAG-56" value="" style="html=1;strokeColor=none;resizeWidth=1;resizeHeight=1;fillColor=none;part=1;connectable=0;allowArrows=0;deletable=0;whiteSpace=wrap;" parent="lIqId058c7UxrgpGXrAG-1" vertex="1">
          <mxGeometry x="700" y="258" width="513" height="380.7" as="geometry">
            <mxPoint y="30" as="offset" />
          </mxGeometry>
        </mxCell>
        <mxCell id="lIqId058c7UxrgpGXrAG-57" value="remove_&lt;div&gt;student_&lt;span style=&quot;background-color: initial;&quot;&gt;by_id&lt;/span&gt;&lt;/div&gt;" style="ellipse;whiteSpace=wrap;html=1;" parent="lIqId058c7UxrgpGXrAG-1" vertex="1">
          <mxGeometry x="703" y="402.0459558823529" width="102" height="67.625" as="geometry" />
        </mxCell>
        <mxCell id="lIqId058c7UxrgpGXrAG-58" value="group_students_&lt;div&gt;by_grade&lt;/div&gt;" style="ellipse;whiteSpace=wrap;html=1;" parent="lIqId058c7UxrgpGXrAG-1" vertex="1">
          <mxGeometry x="805" y="402.0459558823529" width="102" height="67.625" as="geometry" />
        </mxCell>
        <mxCell id="lIqId058c7UxrgpGXrAG-59" value="parition_&lt;div&gt;students_&lt;span style=&quot;background-color: initial;&quot;&gt;by_&lt;/span&gt;&lt;/div&gt;&lt;div&gt;&lt;span style=&quot;background-color: initial;&quot;&gt;pass_fail&lt;/span&gt;&lt;/div&gt;" style="ellipse;whiteSpace=wrap;html=1;" parent="lIqId058c7UxrgpGXrAG-1" vertex="1">
          <mxGeometry x="907" y="402.0459558823529" width="102" height="67.625" as="geometry" />
        </mxCell>
        <mxCell id="lIqId058c7UxrgpGXrAG-60" value="show_registered_&lt;div&gt;students&lt;/div&gt;" style="ellipse;whiteSpace=wrap;html=1;" parent="lIqId058c7UxrgpGXrAG-1" vertex="1">
          <mxGeometry x="1009" y="402.0459558823529" width="102" height="67.625" as="geometry" />
        </mxCell>
        <mxCell id="lIqId058c7UxrgpGXrAG-61" value="clear_database" style="ellipse;whiteSpace=wrap;html=1;" parent="lIqId058c7UxrgpGXrAG-1" vertex="1">
          <mxGeometry x="1111" y="402.0459558823529" width="102" height="67.625" as="geometry" />
        </mxCell>
        <mxCell id="lIqId058c7UxrgpGXrAG-62" value="Session" style="ellipse;whiteSpace=wrap;html=1;" parent="lIqId058c7UxrgpGXrAG-1" vertex="1">
          <mxGeometry x="907.5" y="280.71875" width="102" height="67.625" as="geometry" />
        </mxCell>
        <mxCell id="lIqId058c7UxrgpGXrAG-63" value="&amp;lt;&amp;lt;extend&amp;gt;&amp;gt;" style="html=1;verticalAlign=bottom;labelBackgroundColor=none;endArrow=open;endFill=0;rounded=0;entryX=0;entryY=0.5;entryDx=0;entryDy=0;exitX=0.5;exitY=0;exitDx=0;exitDy=0;" parent="lIqId058c7UxrgpGXrAG-1" source="lIqId058c7UxrgpGXrAG-57" target="lIqId058c7UxrgpGXrAG-62" edge="1">
          <mxGeometry x="-0.2023" y="2" width="160" relative="1" as="geometry">
            <mxPoint x="476" y="357.29411764705884" as="sourcePoint" />
            <mxPoint x="636" y="357.29411764705884" as="targetPoint" />
            <mxPoint y="-1" as="offset" />
          </mxGeometry>
        </mxCell>
        <mxCell id="lIqId058c7UxrgpGXrAG-64" value="&amp;lt;&amp;lt;extend&amp;gt;&amp;gt;" style="html=1;verticalAlign=bottom;labelBackgroundColor=none;endArrow=open;endFill=0;rounded=0;entryX=0;entryY=1;entryDx=0;entryDy=0;exitX=0.5;exitY=0;exitDx=0;exitDy=0;" parent="lIqId058c7UxrgpGXrAG-1" source="lIqId058c7UxrgpGXrAG-58" target="lIqId058c7UxrgpGXrAG-62" edge="1">
          <mxGeometry width="160" relative="1" as="geometry">
            <mxPoint x="476" y="357.29411764705884" as="sourcePoint" />
            <mxPoint x="636" y="357.29411764705884" as="targetPoint" />
          </mxGeometry>
        </mxCell>
        <mxCell id="lIqId058c7UxrgpGXrAG-65" value="&amp;lt;&amp;lt;extend&amp;gt;&amp;gt;" style="html=1;verticalAlign=bottom;labelBackgroundColor=none;endArrow=open;endFill=0;rounded=0;entryX=0.5;entryY=1;entryDx=0;entryDy=0;exitX=0.5;exitY=0;exitDx=0;exitDy=0;" parent="lIqId058c7UxrgpGXrAG-1" source="lIqId058c7UxrgpGXrAG-59" target="lIqId058c7UxrgpGXrAG-62" edge="1">
          <mxGeometry x="-0.514" width="160" relative="1" as="geometry">
            <mxPoint x="476" y="357.29411764705884" as="sourcePoint" />
            <mxPoint x="636" y="357.29411764705884" as="targetPoint" />
            <mxPoint as="offset" />
          </mxGeometry>
        </mxCell>
        <mxCell id="lIqId058c7UxrgpGXrAG-66" value="&amp;lt;&amp;lt;extend&amp;gt;&amp;gt;" style="html=1;verticalAlign=bottom;labelBackgroundColor=none;endArrow=open;endFill=0;rounded=0;entryX=1;entryY=1;entryDx=0;entryDy=0;exitX=0.5;exitY=0;exitDx=0;exitDy=0;" parent="lIqId058c7UxrgpGXrAG-1" source="lIqId058c7UxrgpGXrAG-60" target="lIqId058c7UxrgpGXrAG-62" edge="1">
          <mxGeometry width="160" relative="1" as="geometry">
            <mxPoint x="476" y="357.29411764705884" as="sourcePoint" />
            <mxPoint x="636" y="357.29411764705884" as="targetPoint" />
          </mxGeometry>
        </mxCell>
        <mxCell id="lIqId058c7UxrgpGXrAG-67" value="&amp;lt;&amp;lt;extend&amp;gt;&amp;gt;" style="html=1;verticalAlign=bottom;labelBackgroundColor=none;endArrow=open;endFill=0;rounded=0;entryX=1;entryY=0.5;entryDx=0;entryDy=0;exitX=0.5;exitY=0;exitDx=0;exitDy=0;" parent="lIqId058c7UxrgpGXrAG-1" source="lIqId058c7UxrgpGXrAG-61" target="lIqId058c7UxrgpGXrAG-62" edge="1">
          <mxGeometry x="-0.2294" y="-2" width="160" relative="1" as="geometry">
            <mxPoint x="476" y="357.29411764705884" as="sourcePoint" />
            <mxPoint x="636" y="357.29411764705884" as="targetPoint" />
            <mxPoint x="-1" as="offset" />
          </mxGeometry>
        </mxCell>
        <mxCell id="lIqId058c7UxrgpGXrAG-68" value="&amp;lt;&amp;lt;include&amp;gt;&amp;gt;" style="html=1;verticalAlign=bottom;labelBackgroundColor=none;endArrow=open;endFill=0;dashed=1;rounded=0;fontFamily=Helvetica;fontSize=12;fontColor=default;exitX=1;exitY=1;exitDx=0;exitDy=0;entryX=0;entryY=0;entryDx=0;entryDy=0;" parent="lIqId058c7UxrgpGXrAG-1" source="lIqId058c7UxrgpGXrAG-22" target="lIqId058c7UxrgpGXrAG-54" edge="1">
          <mxGeometry x="-0.0946" y="-8" width="160" relative="1" as="geometry">
            <mxPoint x="528" y="318" as="sourcePoint" />
            <mxPoint x="688" y="318" as="targetPoint" />
            <mxPoint y="-1" as="offset" />
          </mxGeometry>
        </mxCell>
        <mxCell id="lIqId058c7UxrgpGXrAG-69" value="&amp;lt;&amp;lt;include&amp;gt;&amp;gt;" style="html=1;verticalAlign=bottom;labelBackgroundColor=none;endArrow=open;endFill=0;dashed=1;rounded=0;fontFamily=Helvetica;fontSize=12;fontColor=default;exitX=0.5;exitY=1;exitDx=0;exitDy=0;entryX=0.232;entryY=0.071;entryDx=0;entryDy=0;entryPerimeter=0;" parent="lIqId058c7UxrgpGXrAG-1" source="lIqId058c7UxrgpGXrAG-24" target="lIqId058c7UxrgpGXrAG-54" edge="1">
          <mxGeometry x="-0.5994" y="-1" width="160" relative="1" as="geometry">
            <mxPoint x="528" y="318" as="sourcePoint" />
            <mxPoint x="688" y="318" as="targetPoint" />
            <mxPoint as="offset" />
          </mxGeometry>
        </mxCell>
        <mxCell id="lIqId058c7UxrgpGXrAG-70" value="&lt;div&gt;load_students&lt;br&gt;&lt;/div&gt;" style="ellipse;whiteSpace=wrap;html=1;" parent="lIqId058c7UxrgpGXrAG-1" vertex="1">
          <mxGeometry x="769" y="688" width="102" height="68" as="geometry" />
        </mxCell>
        <mxCell id="lIqId058c7UxrgpGXrAG-71" value="&amp;lt;&amp;lt;include&amp;gt;&amp;gt;" style="html=1;verticalAlign=bottom;labelBackgroundColor=none;endArrow=open;endFill=0;dashed=1;rounded=0;fontFamily=Helvetica;fontSize=12;fontColor=default;exitX=0.5;exitY=1;exitDx=0;exitDy=0;entryX=0;entryY=0.5;entryDx=0;entryDy=0;" parent="lIqId058c7UxrgpGXrAG-1" source="lIqId058c7UxrgpGXrAG-21" target="lIqId058c7UxrgpGXrAG-54" edge="1">
          <mxGeometry width="160" relative="1" as="geometry">
            <mxPoint x="274" y="481" as="sourcePoint" />
            <mxPoint x="556" y="629" as="targetPoint" />
          </mxGeometry>
        </mxCell>
        <mxCell id="lIqId058c7UxrgpGXrAG-73" value="&amp;lt;&amp;lt;include&amp;gt;&amp;gt;" style="html=1;verticalAlign=bottom;labelBackgroundColor=none;endArrow=open;endFill=0;dashed=1;rounded=0;fontFamily=Helvetica;fontSize=12;fontColor=default;exitX=0.5;exitY=1;exitDx=0;exitDy=0;entryX=0;entryY=0;entryDx=0;entryDy=0;" parent="lIqId058c7UxrgpGXrAG-1" source="lIqId058c7UxrgpGXrAG-12" target="lIqId058c7UxrgpGXrAG-72" edge="1">
          <mxGeometry x="-0.0756" y="-21" width="160" relative="1" as="geometry">
            <mxPoint x="478" y="481" as="sourcePoint" />
            <mxPoint x="623" y="576" as="targetPoint" />
            <mxPoint as="offset" />
          </mxGeometry>
        </mxCell>
        <mxCell id="lIqId058c7UxrgpGXrAG-75" value="&amp;lt;&amp;lt;include&amp;gt;&amp;gt;" style="html=1;verticalAlign=bottom;labelBackgroundColor=none;endArrow=open;endFill=0;dashed=1;rounded=0;fontFamily=Helvetica;fontSize=12;fontColor=default;exitX=0.279;exitY=0.939;exitDx=0;exitDy=0;entryX=0.029;entryY=0.33;entryDx=0;entryDy=0;entryPerimeter=0;exitPerimeter=0;" parent="lIqId058c7UxrgpGXrAG-1" source="lIqId058c7UxrgpGXrAG-23" target="lIqId058c7UxrgpGXrAG-70" edge="1">
          <mxGeometry x="-0.693" y="-6" width="160" relative="1" as="geometry">
            <mxPoint x="620" y="458" as="sourcePoint" />
            <mxPoint x="801" y="545" as="targetPoint" />
            <mxPoint as="offset" />
          </mxGeometry>
        </mxCell>
        <mxCell id="lIqId058c7UxrgpGXrAG-76" value="&amp;lt;&amp;lt;include&amp;gt;&amp;gt;" style="html=1;verticalAlign=bottom;labelBackgroundColor=none;endArrow=open;endFill=0;dashed=1;rounded=0;fontFamily=Helvetica;fontSize=12;fontColor=default;entryX=0;entryY=0;entryDx=0;entryDy=0;exitX=0.5;exitY=1;exitDx=0;exitDy=0;" parent="lIqId058c7UxrgpGXrAG-1" source="lIqId058c7UxrgpGXrAG-72" target="lIqId058c7UxrgpGXrAG-70" edge="1">
          <mxGeometry width="160" relative="1" as="geometry">
            <mxPoint x="528" y="318" as="sourcePoint" />
            <mxPoint x="688" y="318" as="targetPoint" />
          </mxGeometry>
        </mxCell>
        <mxCell id="lIqId058c7UxrgpGXrAG-77" value="&amp;lt;&amp;lt;include&amp;gt;&amp;gt;" style="html=1;verticalAlign=bottom;labelBackgroundColor=none;endArrow=open;endFill=0;dashed=1;rounded=0;fontFamily=Helvetica;fontSize=12;fontColor=default;entryX=1;entryY=0;entryDx=0;entryDy=0;exitX=0.5;exitY=1;exitDx=0;exitDy=0;" parent="lIqId058c7UxrgpGXrAG-1" source="lIqId058c7UxrgpGXrAG-59" target="lIqId058c7UxrgpGXrAG-70" edge="1">
          <mxGeometry x="-0.4616" y="-3" width="160" relative="1" as="geometry">
            <mxPoint x="866" y="480" as="sourcePoint" />
            <mxPoint x="797" y="566" as="targetPoint" />
            <mxPoint as="offset" />
          </mxGeometry>
        </mxCell>
        <mxCell id="lIqId058c7UxrgpGXrAG-78" value="&amp;lt;&amp;lt;include&amp;gt;&amp;gt;" style="html=1;verticalAlign=bottom;labelBackgroundColor=none;endArrow=open;endFill=0;dashed=1;rounded=0;fontFamily=Helvetica;fontSize=12;fontColor=default;entryX=1;entryY=0.5;entryDx=0;entryDy=0;exitX=0.5;exitY=1;exitDx=0;exitDy=0;" parent="lIqId058c7UxrgpGXrAG-1" source="lIqId058c7UxrgpGXrAG-60" target="lIqId058c7UxrgpGXrAG-70" edge="1">
          <mxGeometry x="-0.4109" y="3" width="160" relative="1" as="geometry">
            <mxPoint x="968" y="480" as="sourcePoint" />
            <mxPoint x="812" y="590" as="targetPoint" />
            <mxPoint as="offset" />
          </mxGeometry>
        </mxCell>
        <mxCell id="lIqId058c7UxrgpGXrAG-79" value="&amp;lt;&amp;lt;include&amp;gt;&amp;gt;" style="html=1;verticalAlign=bottom;labelBackgroundColor=none;endArrow=open;endFill=0;dashed=1;rounded=0;fontFamily=Helvetica;fontSize=12;fontColor=default;entryX=0.5;entryY=0;entryDx=0;entryDy=0;exitX=0.5;exitY=1;exitDx=0;exitDy=0;" parent="lIqId058c7UxrgpGXrAG-1" source="lIqId058c7UxrgpGXrAG-57" target="lIqId058c7UxrgpGXrAG-72" edge="1">
          <mxGeometry width="160" relative="1" as="geometry">
            <mxPoint x="866" y="480" as="sourcePoint" />
            <mxPoint x="761" y="556" as="targetPoint" />
          </mxGeometry>
        </mxCell>
        <mxCell id="lIqId058c7UxrgpGXrAG-80" value="&amp;lt;&amp;lt;include&amp;gt;&amp;gt;" style="html=1;verticalAlign=bottom;labelBackgroundColor=none;endArrow=open;endFill=0;dashed=1;rounded=0;fontFamily=Helvetica;fontSize=12;fontColor=default;exitX=1;exitY=1;exitDx=0;exitDy=0;entryX=0.5;entryY=0;entryDx=0;entryDy=0;" parent="lIqId058c7UxrgpGXrAG-1" source="lIqId058c7UxrgpGXrAG-28" target="lIqId058c7UxrgpGXrAG-55" edge="1">
          <mxGeometry x="0.6576" y="2" width="160" relative="1" as="geometry">
            <mxPoint x="528" y="318" as="sourcePoint" />
            <mxPoint x="688" y="318" as="targetPoint" />
            <mxPoint as="offset" />
          </mxGeometry>
        </mxCell>
        <mxCell id="lIqId058c7UxrgpGXrAG-81" value="&amp;lt;&amp;lt;include&amp;gt;&amp;gt;" style="html=1;verticalAlign=bottom;labelBackgroundColor=none;endArrow=open;endFill=0;dashed=1;rounded=0;fontFamily=Helvetica;fontSize=12;fontColor=default;exitX=1;exitY=0.5;exitDx=0;exitDy=0;entryX=0;entryY=0.5;entryDx=0;entryDy=0;" parent="lIqId058c7UxrgpGXrAG-1" source="lIqId058c7UxrgpGXrAG-55" target="lIqId058c7UxrgpGXrAG-72" edge="1">
          <mxGeometry width="160" relative="1" as="geometry">
            <mxPoint x="326" y="165" as="sourcePoint" />
            <mxPoint x="601" y="481" as="targetPoint" />
          </mxGeometry>
        </mxCell>
        <mxCell id="6IHE3bDuj_ECoMfF7N6P-1" value="&amp;lt;&amp;lt;include&amp;gt;&amp;gt;" style="html=1;verticalAlign=bottom;labelBackgroundColor=none;endArrow=open;endFill=0;dashed=1;rounded=0;fontFamily=Helvetica;fontSize=12;fontColor=default;entryX=0;entryY=0.5;entryDx=0;entryDy=0;exitX=1;exitY=0;exitDx=0;exitDy=0;" parent="lIqId058c7UxrgpGXrAG-1" source="lIqId058c7UxrgpGXrAG-32" target="lIqId058c7UxrgpGXrAG-30" edge="1">
          <mxGeometry x="-0.2623" width="160" relative="1" as="geometry">
            <mxPoint x="539" y="327" as="sourcePoint" />
            <mxPoint x="699" y="327" as="targetPoint" />
            <mxPoint as="offset" />
          </mxGeometry>
        </mxCell>
        <mxCell id="6IHE3bDuj_ECoMfF7N6P-2" value="&amp;lt;&amp;lt;include&amp;gt;&amp;gt;" style="html=1;verticalAlign=bottom;labelBackgroundColor=none;endArrow=open;endFill=0;dashed=1;rounded=0;fontFamily=Helvetica;fontSize=12;fontColor=default;entryX=1;entryY=0.5;entryDx=0;entryDy=0;exitX=0;exitY=0;exitDx=0;exitDy=0;" parent="lIqId058c7UxrgpGXrAG-1" source="lIqId058c7UxrgpGXrAG-25" target="lIqId058c7UxrgpGXrAG-30" edge="1">
          <mxGeometry x="-0.0063" y="11" width="160" relative="1" as="geometry">
            <mxPoint x="280" y="66" as="sourcePoint" />
            <mxPoint x="375" y="9" as="targetPoint" />
            <mxPoint as="offset" />
          </mxGeometry>
        </mxCell>
        <mxCell id="lIqId058c7UxrgpGXrAG-72" value="get_student_&lt;div&gt;if_existed&lt;br&gt;&lt;/div&gt;" style="ellipse;whiteSpace=wrap;html=1;" parent="lIqId058c7UxrgpGXrAG-1" vertex="1">
          <mxGeometry x="739" y="579" width="102" height="68" as="geometry" />
        </mxCell>
        <mxCell id="6IHE3bDuj_ECoMfF7N6P-4" value="&amp;lt;&amp;lt;include&amp;gt;&amp;gt;" style="html=1;verticalAlign=bottom;labelBackgroundColor=none;endArrow=open;endFill=0;dashed=1;rounded=0;fontFamily=Helvetica;fontSize=12;fontColor=default;exitX=1;exitY=0.5;exitDx=0;exitDy=0;entryX=0;entryY=1;entryDx=0;entryDy=0;" parent="lIqId058c7UxrgpGXrAG-1" source="lIqId058c7UxrgpGXrAG-54" target="lIqId058c7UxrgpGXrAG-72" edge="1">
          <mxGeometry x="-0.6447" y="-2" width="160" relative="1" as="geometry">
            <mxPoint x="644" y="563" as="sourcePoint" />
            <mxPoint x="710" y="587" as="targetPoint" />
            <mxPoint y="-1" as="offset" />
          </mxGeometry>
        </mxCell>
        <mxCell id="mYnbtB_8xjl8y1mLFeXw-0" value="&amp;lt;&amp;lt;include&amp;gt;&amp;gt;" style="html=1;verticalAlign=bottom;labelBackgroundColor=none;endArrow=open;endFill=0;dashed=1;rounded=0;fontFamily=Helvetica;fontSize=12;fontColor=default;entryX=0.5;entryY=0;entryDx=0;entryDy=0;exitX=0.5;exitY=1;exitDx=0;exitDy=0;" parent="lIqId058c7UxrgpGXrAG-1" source="lIqId058c7UxrgpGXrAG-58" target="lIqId058c7UxrgpGXrAG-70" edge="1">
          <mxGeometry x="-0.5788" width="160" relative="1" as="geometry">
            <mxPoint x="1070" y="480" as="sourcePoint" />
            <mxPoint x="866" y="696" as="targetPoint" />
            <mxPoint as="offset" />
          </mxGeometry>
        </mxCell>
        <mxCell id="AOVX6B4Ycqip7QHd1c6I-0" value="&lt;b&gt;students.data&lt;/b&gt;" style="text;html=1;align=center;verticalAlign=middle;whiteSpace=wrap;rounded=0;" parent="lIqId058c7UxrgpGXrAG-1" vertex="1">
          <mxGeometry x="659" y="538" width="60" height="30" as="geometry" />
        </mxCell>
      </root>
    </mxGraphModel>
  </diagram>
</mxfile>
